<svg width="26" height="26" viewBox="0 0 26 26" fill="none" xmlns="http://www.w3.org/2000/svg"><path d="M9.79137 2.2534C9.91192 1.53012 10.5377 1 11.271 1H14.7296C15.4628 1 16.0886 1.53012 16.2092 2.2534L16.4938 3.96147C16.577 4.46019 16.9103 4.87562 17.3526 5.12048C17.4515 5.17522 17.5493 5.23178 17.6459 5.2901C18.0792 5.55179 18.6063 5.63315 19.0804 5.45554L20.7029 4.8477C21.3896 4.59046 22.1616 4.86734 22.5282 5.50236L24.2575 8.49762C24.6241 9.13264 24.4779 9.93964 23.9118 10.4057L22.5727 11.5081C22.1827 11.8292 21.9893 12.325 21.9987 12.83C21.9997 12.8866 22.0003 12.9432 22.0003 13C22.0003 13.0568 21.9997 13.1134 21.9987 13.1699C21.9893 13.675 22.1827 14.1708 22.5727 14.4919L23.9118 15.5943C24.4779 16.0603 24.6241 16.8673 24.2575 17.5024L22.5282 20.4976C22.1616 21.1326 21.3896 21.4095 20.7029 21.1523L19.0804 20.5444C18.6064 20.3668 18.0793 20.4482 17.6459 20.7099C17.5493 20.7682 17.4515 20.8248 17.3526 20.8795C16.9103 21.1244 16.577 21.5398 16.4938 22.0385L16.2092 23.7466C16.0886 24.4699 15.4628 25 14.7296 25H11.271C10.5377 25 9.91192 24.4699 9.79137 23.7466L9.50669 22.0385C9.42357 21.5398 9.09027 21.1244 8.64792 20.8795C8.54902 20.8248 8.45126 20.7682 8.35468 20.7099C7.9213 20.4482 7.39419 20.3668 6.92011 20.5445L5.29762 21.1523C4.61097 21.4095 3.83898 21.1327 3.47235 20.4976L1.74304 17.5024C1.37641 16.8674 1.52261 16.0604 2.08872 15.5943L3.42785 14.4919C3.81787 14.1708 4.0112 13.675 4.00184 13.17C4.0008 13.1134 4.00027 13.0568 4.00027 13C4.00027 12.9432 4.0008 12.8866 4.00184 12.8301C4.0112 12.325 3.81786 11.8292 3.42785 11.5081L2.08872 10.4057C1.52261 9.93966 1.37641 9.13266 1.74304 8.49764L3.47235 5.50238C3.83898 4.86736 4.61097 4.59048 5.29762 4.84772L6.92009 5.45556C7.39418 5.63316 7.92129 5.5518 8.35466 5.29011C8.45125 5.23178 8.54901 5.17523 8.64792 5.12048C9.09027 4.87562 9.42357 4.46019 9.50669 3.96147L9.79137 2.2534Z" stroke="#4E4E4E" stroke-width="2" stroke-linecap="round" stroke-linejoin="round"/><path d="M17 12.9999C17 15.209 15.2091 16.9999 13 16.9999C10.7908 16.9999 8.99996 15.209 8.99996 12.9999C8.99996 10.7908 10.7908 8.99989 13 8.99989C15.2091 8.99989 17 10.7908 17 12.9999Z" stroke="#4E4E4E" stroke-width="2" stroke-linecap="round" stroke-linejoin="round"/></svg>