<?xml version="1.0" encoding="utf-8"?>
<!-- Generator: Adobe Illustrator 27.5.0, SVG Export Plug-In . SVG Version: 6.00 Build 0)  -->
<svg version="1.1" xmlns="http://www.w3.org/2000/svg" xmlns:xlink="http://www.w3.org/1999/xlink" x="0px" y="0px"
	 viewBox="0 0 3710 3710" style="enable-background:new 0 0 3710 3710;" xml:space="preserve">
<g id="Background">
	<g>
		<g>
			<rect style="fill:#FFFFFF;" width="3710" height="3710"/>
		</g>
	</g>
</g>
<g id="Illustration">
	<g>
		<path style="fill:#F4F7FA;" d="M3201.793,1653.9c-75.221-492.358-383.627-1097.254-992.918-1160.557
			c0,0-462.602-56.269-918.626,29.012c-270.651,50.614-507.972,201.281-658.138,417.826
			c-150.169,216.546-200.329,480.594-139.453,732.331c39.539,163.506,66.257,332.728,58.924,500.739
			c-12.761,292.409-5.419,565.351,278.357,739.735c253.379,155.706,572.26,293.033,876.478,317.086
			c206.744,16.346,438.594-10.106,637.857-63.932C3359.757,2891.827,3277.014,2146.257,3201.793,1653.9z"/>
		<g>
			<g>
				
					<linearGradient id="SVGID_1_" gradientUnits="userSpaceOnUse" x1="-2400.9797" y1="90.4238" x2="-1971.0076" y2="2839.1819" gradientTransform="matrix(-0.6809 -0.7325 -0.7325 0.6809 1663.9821 168.1761)">
					<stop  offset="0" style="stop-color:#FF9085"/>
					<stop  offset="1" style="stop-color:#FB6FBB"/>
				</linearGradient>
				<path style="fill:url(#SVGID_1_);" d="M2179.389,2928.447c-14.965-4.875-43.223-28.674-48.031-37.916
					c-32-61.498-99.392-172.747-81.599-243.84c3.039-12.142,60.06-13.191,69.875-23.011c36.193-9.494,49.337-10.542,79.311-36.471
					c88.491-76.547-42.717-276.361,158.246-299.999c147.202-17.315,255.569,52.708,281.31-165.887
					c25.741-218.595,270.997-579.522,470.456-386.038c114.471,111.042-52.875,269.499-11.117,417.531
					c39.68,140.669-34.809,236.269-185.994,287.687s-89.388,124.519-72.73,254.229c20.01,155.81-210.74,139.232-316.618,122.491
					C2437.235,2803.743,2211.035,2826.939,2179.389,2928.447z"/>
				<g>
					<defs>
						<path id="SVGID_00000075122252032245368430000004823313926675521444_" d="M2018.521,2621.563
							c13.77,107.311,23.362,217.075,36.645,325.215c59.543,16.305,129.98,34.034,157.38-37.786
							c38.094-99.852,225.048-105.848,310.167-91.925c105.351,17.233,336.528,33.319,316.417-122.36
							c-16.742-129.602-78.448-202.819,72.726-254.211c151.173-51.391,225.636-147.008,185.984-287.688
							c-41.728-148.044,125.564-306.417,11.116-417.526c-199.42-193.603-444.816,167.66-470.408,385.962
							c-25.592,218.303-134.627,149.487-281.228,165.746c-200.141,22.198-71.966,227.272-157.454,298.363
							C2132.849,2641.083,2092.113,2620.915,2018.521,2621.563z"/>
					</defs>
					<clipPath id="SVGID_00000159442203307509860180000004124334679657957776_">
						<use xlink:href="#SVGID_00000075122252032245368430000004823313926675521444_"  style="overflow:visible;"/>
					</clipPath>
					<g style="opacity:0.8;clip-path:url(#SVGID_00000159442203307509860180000004124334679657957776_);">
						<path style="fill:#FCFDFE;" d="M2091.336,2775.275l-0.941-3.444c249.826-68.352,471.974-211.39,642.427-413.649
							c162.187-192.452,275.458-434.479,327.565-699.912l3.503,0.687c-52.224,266.028-165.762,508.613-328.338,701.527
							C2564.632,2563.298,2341.865,2706.731,2091.336,2775.275z"/>
						<path style="fill:#FCFDFE;" d="M2364.49,2663.454l-0.374-3.548c147.483-15.598,368.378,27.29,492.413,95.605l-1.722,3.126
							C2731.321,2690.628,2511.365,2647.926,2364.49,2663.454z"/>
						<path style="fill:#FCFDFE;" d="M2188.671,2747.439l-1.86-3.047c65.512-39.976,108.299-111.539,127.173-212.704
							c13.842-74.191,14.738-162.278,2.663-261.816l3.544-0.429c12.118,99.899,11.211,188.352-2.696,262.9
							C2298.427,2634.545,2255.085,2706.915,2188.671,2747.439z"/>
						<path style="fill:#FCFDFE;" d="M2757.539,2332.226l-2.013-2.947c119.694-81.76,272.106-80.921,378.89-65.82l-0.5,3.533
							C3027.76,2251.981,2876.289,2251.113,2757.539,2332.226z"/>
						<path style="fill:#FCFDFE;" d="M2934.802,2051.74l-3.452-0.915c17.928-67.724,33.134-209.284-66.436-396.447l3.15-1.677
							C2968.208,1840.941,2952.862,1983.51,2934.802,2051.74z"/>
					</g>
				</g>
			</g>
		</g>
		<g>
			<g>
				<defs>
					<path id="SVGID_00000023272724535273220920000010471579596059114881_" d="M2192.93,2940.708
						c-77.533-25.968-154.657-53.752-231.31-83.335c-1.501,0.937,3.39-176.825,101.861-252.876
						c194.068-146.739,112.817-324.171,98.324-423.282c-26.382-140.823,27.941-296.514,167.809-240.486
						c136.872,51.192,210.498-236.278,226.259-465.073c-1.286-112.96,125.503-227.036,233.771-238.909
						c110.998-14.757,203.474,72.688,196.598,296.159c3.471,260.79-207.72,379.869-298.474,494.057
						c-89.246,112.068,48.711,240.374-96.48,327.832c-123.059,78.776-268.684,125.171-241.981,256.584
						C2377.592,2741.642,2347.862,2838.676,2192.93,2940.708z"/>
				</defs>
				<clipPath id="SVGID_00000062177127329884477130000014578295698258848129_">
					<use xlink:href="#SVGID_00000023272724535273220920000010471579596059114881_"  style="overflow:visible;"/>
				</clipPath>
				<path style="clip-path:url(#SVGID_00000062177127329884477130000014578295698258848129_);fill:#D8DEE8;" d="M2192.93,2940.708
					c-77.533-25.968-154.657-53.752-231.31-83.335c-1.501,0.937,3.39-176.825,101.861-252.876
					c194.068-146.739,112.817-324.171,98.324-423.282c-25.897-140.635,25.684-278.668,160.179-256.763
					c149.693,21.383,220.748-219.999,233.889-448.795c-1.286-112.96,125.503-227.036,233.771-238.909
					c110.998-14.757,203.474,72.688,196.598,296.159c3.471,260.79-207.72,379.869-298.474,494.057
					c-89.246,112.068,48.711,240.374-96.48,327.832c-123.059,78.776-268.684,125.171-241.981,256.584
					C2377.592,2741.642,2347.862,2838.676,2192.93,2940.708z"/>
				<g style="opacity:0.8;clip-path:url(#SVGID_00000062177127329884477130000014578295698258848129_);">
					<path style="fill:#BEB8F2;" d="M2080.916,2931.213c0.251-1.543,141.568-352.154,336.277-683.121
						c28.383-54.126,58.435-108.479,87.496-161.042c77.805-140.73,158.26-286.251,210.91-436.04
						c58.84-167.397,76.677-324.458,54.53-480.155l4.179-0.594c22.243,156.384,4.342,314.097-54.728,482.149
						c-52.766,150.123-133.309,295.8-211.198,436.682c-29.051,52.544-59.09,106.875-87.503,161.05
						c-186.07,316.288-332.115,668.898-335.831,681.905L2080.916,2931.213z"/>
					<path style="fill:#BEB8F2;" d="M2652.459,1815.041l-2.591-3.333c106.422-82.727,238.623-203.713,309.646-268.71
						c57.321-52.458,57.547-52.381,59.712-51.634l-1.372,3.99l0.686-1.995l0.601,1.983c-2.787,1.359-26.613,23.164-56.778,50.771
						C2891.295,1611.149,2759.013,1732.208,2652.459,1815.041z"/>
					<path style="fill:#BEB8F2;" d="M2702.756,1684.19c1.871-115.974-31.193-198.46-59.261-247.235
						c-30.698-53.346-63.11-80.664-67.53-82.283c-0.011-0.004-0.023-0.008-0.034-0.012c0.005,0.002,0.504,0.171,1.14-0.108
						l-1.692-3.866c1.204-0.524,2.433,0.043,4.272,1.268c27.73,18.459,130.604,128.957,127.324,332.305L2702.756,1684.19z"/>
					<path style="fill:#BEB8F2;" d="M2297.638,2465.664c31.325-102.841,27.073-220.267-12.64-349.014
						c-20.715-67.161-50.388-134.635-88.194-200.547c-2.755-4.804-3.72-6.505-4.003-7.28l3.964-1.448
						c0.217,0.553,1.832,3.368,3.702,6.627c37.958,66.183,67.758,133.945,88.564,201.403
						c39.965,129.568,44.22,247.827,12.645,351.487L2297.638,2465.664z"/>
					<path style="fill:#BEB8F2;" d="M2357.284,2362.766l-3.14-2.818c123.087-137.144,326.177-111.948,328.471-111.107
						c0.005,0.002,0.007,0.002,0.01,0.006l1.198,2.221l-1.787,1.784l-0.308-2.065l-0.52,2.011
						C2679.314,2252.399,2479.672,2226.402,2357.284,2362.766z"/>
					<path style="fill:#BEB8F2;" d="M2104.86,2874.103c9.865-45.412,7.465-126.279-59.986-253.643c-3.755-7.09-3.755-7.09-3.4-8.163
						l2.003,0.663l2.032-0.494c0.186,0.526,1.534,3.072,3.095,6.019c68.047,128.489,70.393,210.413,60.379,256.512L2104.86,2874.103
						z"/>
					<path style="fill:#BEB8F2;" d="M2144.61,2792.475l-3.782-1.871c16.366-33.094,68.397-94.35,232.995-132.78
						c2.257-0.527,3.709-0.861,4.234-1.023l1.237,4.035c-0.559,0.172-2.106,0.535-4.513,1.099
						C2211.873,2699.968,2160.646,2760.047,2144.61,2792.475z"/>
				</g>
			</g>
		</g>
		<g>
			<g>
				<g>
					<g>
						<path style="fill:#D8DEE8;" d="M1127.562,2650.562c-4.43,36.641-12.189,66.264-18.182,101.857
							c149.983-40.996,302.084-53.021,454.22-94.309c-134.826-152.062-244.144-208.286-230.987-443.559
							c6.174-110.409,50.693-326.206-12.749-419.211c-72.278-105.958-149.102-59-148.85-167.602
							c0.393-169.743-114.081-325.029-320.882-210.924c-204.104,112.617-71.651,703.048,86.509,838.493
							C1048.127,2397.529,1150.692,2459.237,1127.562,2650.562z"/>
						<g>
							<defs>
								<path id="SVGID_00000110459453267389668100000008802389057999105977_" d="M1333.132,2196.048
									c2.468-41.458,51.902-329.992-12.993-405.105c-73.935-85.575-148.763-60.045-148.921-165.082
									c-0.246-164.168-114.015-324.421-321.072-209.445C645.79,1529.891,778.91,2120.65,936.33,2254.11
									c114.847,157.829,209.932,182.218,192.815,407.75C1117.155,2819.834,1323.852,2351.924,1333.132,2196.048z"/>
							</defs>
							<clipPath id="SVGID_00000024716450482158858110000015193889533747137454_">
								<use xlink:href="#SVGID_00000110459453267389668100000008802389057999105977_"  style="overflow:visible;"/>
							</clipPath>
							<g style="opacity:0.8;clip-path:url(#SVGID_00000024716450482158858110000015193889533747137454_);">
								<path style="fill:#FCFDFE;" d="M1340.642,2685.665c-22.902-52.603-50.219-104.043-76.636-153.788l-9.984-18.822
									c-21.173-39.986-39.397-76.132-55.478-108.025c-9.057-17.962-17.612-34.93-26.04-51.31
									c-25.506-49.574-43.52-84.359-52.608-101.908c-3.175-6.132-5.263-10.16-6.198-11.982
									c-70.543-137.211-115.923-349.638-140.304-463.762c-2.641-12.364-5.002-23.418-7.085-32.9
									c-35.777-162.851-92.511-328.02-168.622-490.921l2.676-1.249c76.203,163.096,133.006,328.474,168.829,491.537
									c2.084,9.487,4.447,20.544,7.09,32.917c24.352,113.988,69.678,326.164,140.041,463.027c0.936,1.82,3.021,5.846,6.195,11.976
									c9.09,17.549,27.104,52.337,52.611,101.915c8.433,16.391,16.991,33.363,26.05,51.332
									c16.074,31.88,34.294,68.012,55.451,107.973l9.984,18.817c26.443,49.796,53.787,101.287,76.734,153.996L1340.642,2685.665z"
									/>
								<path style="fill:#FCFDFE;" d="M1208.198,2433.021c-42.299-92.885-54.563-219.038-35.466-364.818
									c15.909-121.435,53.574-252.475,103.337-359.525l2.676,1.245c-49.642,106.787-87.216,237.514-103.085,358.662
									c-19.026,145.233-6.846,270.83,35.224,363.21L1208.198,2433.021z"/>
								<path style="fill:#FCFDFE;" d="M980.108,1794.521l-2.95-0.122c3.661-88.182,18.493-176.422,32.837-261.756
									c9.817-58.407,19.969-118.801,26.458-178.688l2.935,0.318c-6.5,59.972-16.658,120.41-26.482,178.859
									C998.578,1618.377,983.76,1706.523,980.108,1794.521z"/>
								<path style="fill:#FCFDFE;" d="M1047.569,2071.855c-69.619-101.111-208.693-204.92-297.617-222.154l0.562-2.9
									c89.555,17.357,229.504,121.738,299.489,223.379L1047.569,2071.855z"/>
							</g>
						</g>
					</g>
					<g>
						
							<linearGradient id="SVGID_00000125589052389588631660000014226470230316437889_" gradientUnits="userSpaceOnUse" x1="2504.4722" y1="460.9569" x2="3210.4424" y2="1623.1659" gradientTransform="matrix(0.0263 0.9997 0.9997 -0.0263 36.7612 -332.8003)">
							<stop  offset="0.0036" style="stop-color:#E38DDD"/>
							<stop  offset="1" style="stop-color:#9571F6"/>
						</linearGradient>
						<path style="fill:url(#SVGID_00000125589052389588631660000014226470230316437889_);" d="M960.017,2240.05
							c58.674,180.031,160.497,128.06,293.391,67.394c-3.666,176.316-0.744,348.131,2.826,522.484
							c-89.546,39.282-154.416,65.753-218.772-34.003c-72.786-112.822-111.049-180.344-258.354-193.149
							c-147.305-12.805-268.604-105.948-236.552-250.258c33.731-151.862-114.471-327.297-4.462-447.78
							C729.781,1694.804,898.92,2052.583,960.017,2240.05z"/>
						<g>
							<defs>
								<path id="SVGID_00000041286850284418602160000002885155138116530058_" d="M1320.833,2789.056
									c-94.188,62.338-200.26,133.321-284.136,5.313c-69.826-106.564-111.217-181.022-257.794-191.953
									c-146.576-10.931-268.537-106.733-236.424-249.851c33.795-150.609-114.161-329.278-4.36-447.725
									c191.321-206.388,361.278,141.128,421.829,338.064c60.551,196.936,177.57,92.875,305.652,70.813
									C1440.46,2283.597,1396.933,2738.689,1320.833,2789.056z"/>
							</defs>
							<clipPath id="SVGID_00000162334734036140450050000011707903719705317025_">
								<use xlink:href="#SVGID_00000041286850284418602160000002885155138116530058_"  style="overflow:visible;"/>
							</clipPath>
							<g style="opacity:0.8;clip-path:url(#SVGID_00000162334734036140450050000011707903719705317025_);">
								<path style="fill:#FCFDFE;" d="M1218.206,2610.194c-150.642-52.814-274.697-101.011-385.725-199.113
									c-106.249-93.881-165.293-201.407-197.432-359.541c-16.658-81.962-37.861-138.812-68.308-216.187l2.747-1.083
									c30.504,77.523,51.748,134.486,68.453,216.681c32,157.456,90.765,264.496,196.495,357.917
									c110.625,97.748,234.413,145.834,384.747,198.542L1218.206,2610.194z"/>
								<path style="fill:#FCFDFE;" d="M1063.919,2859.875l-2.487-1.593c28.359-44.22,60.139-81.175,97.156-112.977
									c18.943-16.272,38.898-28.115,63.035-40.893l1.38,2.608c-23.961,12.684-43.757,24.429-62.49,40.524
									C1123.716,2779.157,1092.119,2815.9,1063.919,2859.875z"/>
								<path style="fill:#FCFDFE;" d="M522.702,2474.429l-0.954-2.795c132.48-45.224,268.419-47.917,382.771-7.582l-0.981,2.784
									C789.805,2426.724,654.556,2429.417,522.702,2474.429z"/>
								<path style="fill:#FCFDFE;" d="M686.962,2218.146c-3.28-13.857,1.813-133.214,7.673-240.295
									c5.884-107.516,13.632-223.184,16.411-230.641l2.768,1.032c-2.363,6.337-9.644,109.411-16.23,229.77
									c-5.85,106.875-10.957,225.904-7.75,239.454L686.962,2218.146z"/>
							</g>
						</g>
					</g>
				</g>
			</g>
		</g>
		<g>
			<g>
				
					<linearGradient id="SVGID_00000165237062661725689200000000281006945926885807_" gradientUnits="userSpaceOnUse" x1="1137.3129" y1="3100.6963" x2="1364.1141" y2="2052.2034" gradientTransform="matrix(0.893 0.45 -0.45 0.893 1489.7255 -474.2699)">
					<stop  offset="0" style="stop-color:#FFC444"/>
					<stop  offset="0.129" style="stop-color:#FDB946"/>
					<stop  offset="0.1674" style="stop-color:#FDB647"/>
					<stop  offset="0.9964" style="stop-color:#F36F56"/>
				</linearGradient>
				<path style="fill:url(#SVGID_00000165237062661725689200000000281006945926885807_);" d="M2826.122,1453.267l-0.689-8.613
					c-3.848-47.979-45.542-83.956-93.57-80.738c-25.067,1.682-48.527,12.948-65.515,31.46l-261.577,285.1
					c-35.946,39.179-81.331,68.496-131.824,85.153l-23.985,7.911c-33.929,11.193-69.534,16.459-105.25,15.569l-383.944-9.571
					l317.332-128.666c39.34-15.951,58.382-60.704,42.592-100.11l-4.275-10.676c-13.263-33.102-47.581-52.749-82.854-47.52
					c-125.44,18.592-413.166,62.081-536.711,87.748c-118.824,24.685-285.097,247.876-363.188,361.717
					c-28.559,41.635-43.952,90.327-44.329,140.816c-0.435,57.431,28.334,111.151,76.379,142.623l27.226,17.834
					c50.736,33.234,111.133,48.537,171.573,43.471l766.723-64.264c98.217-8.233,188.31-57.822,247.807-136.401l428.563-565.993
					C2821.095,1500.983,2828.044,1477.191,2826.122,1453.267z"/>
				
					<linearGradient id="SVGID_00000005982627441858348590000004450262596655510198_" gradientUnits="userSpaceOnUse" x1="990.8737" y1="2665.1345" x2="1217.6687" y2="1616.6711">
					<stop  offset="0.0036" style="stop-color:#6165D7"/>
					<stop  offset="1" style="stop-color:#AA80F9"/>
				</linearGradient>
				<path style="fill:url(#SVGID_00000005982627441858348590000004450262596655510198_);" d="M1434.847,2317.852l-345.948-405.213
					c-14.591-17.09-40.271-19.116-57.361-4.525l-311.099,265.599c-17.09,14.591-19.114,40.271-4.525,57.361l345.95,405.213
					c14.589,17.09,40.271,19.116,57.361,4.525l311.097-265.598C1447.411,2360.622,1449.438,2334.94,1434.847,2317.852z"/>
			</g>
			<g>
				
					<linearGradient id="SVGID_00000001627897858286899120000013802676511817892532_" gradientUnits="userSpaceOnUse" x1="1413.0616" y1="1207.6273" x2="1543.7069" y2="6060.1851" gradientTransform="matrix(0.893 0.45 -0.45 0.893 1489.7255 -474.2699)">
					<stop  offset="0" style="stop-color:#FFC444"/>
					<stop  offset="0.9964" style="stop-color:#F36F56"/>
				</linearGradient>
				<path style="fill:url(#SVGID_00000001627897858286899120000013802676511817892532_);" d="M2844.712,1430.959l-0.689-8.613
					c-3.848-47.979-45.542-83.956-93.57-80.738c-25.067,1.682-48.527,12.948-65.515,31.46l-261.577,285.1
					c-35.946,39.179-81.331,68.496-131.824,85.153l-23.985,7.911c-33.929,11.193-69.534,16.459-105.25,15.569l-383.944-9.571
					l317.333-128.666c39.34-15.951,58.382-60.704,42.592-100.11l-4.274-10.676c-13.263-33.103-47.581-52.749-82.855-47.52
					c-125.44,18.591-413.166,62.081-536.711,87.748c-118.824,24.685-285.097,247.876-363.188,361.717
					c-28.559,41.636-43.952,90.327-44.329,140.816c-0.435,57.431,28.334,111.152,76.379,142.623l27.226,17.834
					c50.736,33.234,111.133,48.537,171.573,43.471l766.723-64.264c98.217-8.234,188.31-57.822,247.808-136.401l428.562-565.993
					C2839.685,1478.675,2846.634,1454.884,2844.712,1430.959z"/>
				
					<linearGradient id="SVGID_00000155142505008094379660000014451579818503960464_" gradientUnits="userSpaceOnUse" x1="1100.6205" y1="2499.0823" x2="1167.7532" y2="4992.5933">
					<stop  offset="0.0036" style="stop-color:#6165D7"/>
					<stop  offset="1" style="stop-color:#AA80F9"/>
				</linearGradient>
				<path style="fill:url(#SVGID_00000155142505008094379660000014451579818503960464_);" d="M1448.921,2352.921l-311.118,265.573
					c-17.065,14.612-42.756,12.566-57.367-4.499l-345.918-405.219c-14.612-17.103-12.568-42.793,4.499-57.367l18.96-16.173
					l292.156-249.436c17.067-14.576,42.756-12.568,57.369,4.535l35.729,41.865l280.668,328.309l17.884,20.502h0.036l11.6,14.075
					C1468.031,2312.152,1465.985,2338.311,1448.921,2352.921z"/>
			</g>
			
				<linearGradient id="SVGID_00000020387689689301614140000011480327528797279133_" gradientUnits="userSpaceOnUse" x1="1091.9684" y1="2177.719" x2="1136.7627" y2="3841.5139">
				<stop  offset="0.0036" style="stop-color:#6165D7"/>
				<stop  offset="1" style="stop-color:#AA80F9"/>
			</linearGradient>
			<path style="opacity:0.4;fill:url(#SVGID_00000020387689689301614140000011480327528797279133_);" d="M1448.921,2352.921
				l-311.118,265.573c-17.065,14.612-42.756,12.566-57.367-4.499l-345.918-405.219c-14.612-17.103-12.568-42.793,4.499-57.367
				l18.96-16.173c13.125,41.38,45.249,79.527,126.374,65.844c165.448-27.885,174.631,69.876,247.243,109.212
				c88.003,47.701,216.534-18.888,310.189-29.281h0.036l11.6,14.075C1468.031,2312.152,1465.985,2338.311,1448.921,2352.921z"/>
			<g>
				
					<linearGradient id="SVGID_00000106115170305987762170000000183058021197969293_" gradientUnits="userSpaceOnUse" x1="862.7386" y1="2629.3594" x2="1412.1951" y2="2233.0015">
					<stop  offset="0.0036" style="stop-color:#6165D7"/>
					<stop  offset="1" style="stop-color:#AA80F9"/>
				</linearGradient>
				
					<circle style="fill:url(#SVGID_00000106115170305987762170000000183058021197969293_);" cx="1316.823" cy="2301.799" r="43.884"/>
				
					<linearGradient id="SVGID_00000089557051447031596550000010076167072500073869_" gradientUnits="userSpaceOnUse" x1="861.7108" y1="2627.9338" x2="1411.1675" y2="2231.5759">
					<stop  offset="0.0036" style="stop-color:#6165D7"/>
					<stop  offset="1" style="stop-color:#AA80F9"/>
				</linearGradient>
				
					<circle style="fill:url(#SVGID_00000089557051447031596550000010076167072500073869_);" cx="1150.525" cy="2419.594" r="43.884"/>
			</g>
		</g>
		<g>
			<g>
				
					<ellipse transform="matrix(0.7071 -0.7071 0.7071 0.7071 -118.4112 1539.3129)" style="fill:#FFFFFF;" cx="1798.909" cy="912.591" rx="368.32" ry="368.32"/>
				
					<linearGradient id="SVGID_00000092414160757106967640000013722481099855246725_" gradientUnits="userSpaceOnUse" x1="1563.0868" y1="485.0681" x2="2387.8982" y2="1980.3707">
					<stop  offset="0" style="stop-color:#FFC444"/>
					<stop  offset="0.9964" style="stop-color:#F36F56"/>
				</linearGradient>
				
					<circle style="fill:url(#SVGID_00000092414160757106967640000013722481099855246725_);" cx="1798.909" cy="912.591" r="327.178"/>
			</g>
			<g>
				<path style="fill:#FFFFFF;" d="M1768.526,1115.856v-44.835c-39.856-1.993-78.718-12.956-100.136-24.411l17.93-71.74
					c24.907,11.957,60.768,24.907,99.63,24.907c26.408,0,46.346-5.978,46.346-22.418c0-14.948-15.456-23.417-56.812-33.38
					c-58.273-13.95-104.112-40.353-104.112-94.66c0-48.324,34.866-85.188,97.155-95.654v-44.338h59.287v40.855
					c39.349,1.496,64.763,8.965,84.194,16.936l-17.443,69.25c-14.442-5.481-42.838-18.934-86.182-18.934
					c-31.885,0-39.856,10.466-39.856,20.43c0,12.454,21.419,22.417,65.757,34.871c69.246,18.934,95.147,46.833,95.147,96.151
					c0,47.33-35.373,87.186-101.617,97.652v49.318H1768.526z"/>
			</g>
		</g>
		<g>
			<g>
				
					<ellipse transform="matrix(0.7071 -0.7071 0.7071 0.7071 -573.9824 1177.4972)" style="fill:#FFFFFF;" cx="1134.374" cy="1281.607" rx="251.234" ry="251.234"/>
				
					<linearGradient id="SVGID_00000124141096611075419550000017441621912800480179_" gradientUnits="userSpaceOnUse" x1="973.5175" y1="989.9902" x2="1536.1266" y2="2009.9457">
					<stop  offset="0" style="stop-color:#FFC444"/>
					<stop  offset="0.9964" style="stop-color:#F36F56"/>
				</linearGradient>
				
					<circle style="fill:url(#SVGID_00000124141096611075419550000017441621912800480179_);" cx="1134.374" cy="1281.607" r="223.17"/>
			</g>
			<g>
				<path style="fill:#FFFFFF;" d="M1113.649,1420.255v-30.582c-27.186-1.359-53.694-8.837-68.304-16.651l12.23-48.935
					c16.99,8.156,41.45,16.99,67.958,16.99c18.013,0,31.613-4.078,31.613-15.291c0-10.196-10.542-15.973-38.752-22.769
					c-39.748-9.515-71.016-27.525-71.016-64.568c0-32.962,23.783-58.107,66.27-65.246v-30.243h40.44v27.867
					c26.84,1.02,44.175,6.115,57.429,11.552l-11.898,47.236c-9.851-3.739-29.22-12.915-58.785-12.915
					c-21.749,0-27.186,7.139-27.186,13.935c0,8.495,14.61,15.291,44.853,23.786c47.233,12.915,64.9,31.945,64.9,65.585
					c0,32.284-24.128,59.47-69.314,66.609v33.64H1113.649z"/>
			</g>
		</g>
		<g>
			<g>
				
					<ellipse transform="matrix(0.7071 -0.7071 0.7071 0.7071 -74.8233 2084.2131)" style="fill:#FFFFFF;" cx="2478.456" cy="1132.426" rx="251.234" ry="251.234"/>
				
					<linearGradient id="SVGID_00000121243887993340742150000009731955573082408373_" gradientUnits="userSpaceOnUse" x1="2317.6003" y1="840.81" x2="2880.2092" y2="1860.7654">
					<stop  offset="0" style="stop-color:#FFC444"/>
					<stop  offset="0.9964" style="stop-color:#F36F56"/>
				</linearGradient>
				
					<circle style="fill:url(#SVGID_00000121243887993340742150000009731955573082408373_);" cx="2478.456" cy="1132.426" r="223.17"/>
			</g>
			<g>
				<path style="fill:#FFFFFF;" d="M2457.731,1271.074v-30.582c-27.186-1.359-53.694-8.837-68.304-16.651l12.23-48.935
					c16.99,8.156,41.45,16.99,67.958,16.99c18.013,0,31.613-4.078,31.613-15.291c0-10.197-10.542-15.973-38.752-22.769
					c-39.748-9.515-71.016-27.525-71.016-64.568c0-32.962,23.783-58.107,66.27-65.246v-30.243h40.44v27.867
					c26.84,1.021,44.175,6.115,57.429,11.552l-11.898,47.236c-9.851-3.739-29.22-12.915-58.785-12.915
					c-21.749,0-27.186,7.139-27.186,13.935c0,8.495,14.61,15.291,44.854,23.786c47.233,12.915,64.9,31.945,64.9,65.585
					c0,32.284-24.128,59.47-69.313,66.609v33.64H2457.731z"/>
			</g>
		</g>
		<g>
			<g>
				
					<linearGradient id="SVGID_00000098209616896458243510000009114029720469874360_" gradientUnits="userSpaceOnUse" x1="1076.6115" y1="2939.3411" x2="1457.1981" y2="2685.6162">
					<stop  offset="0" style="stop-color:#FFC444"/>
					<stop  offset="0.9964" style="stop-color:#F36F56"/>
				</linearGradient>
				<path style="fill:url(#SVGID_00000098209616896458243510000009114029720469874360_);" d="M826.928,2988.966
					c-31.278-81.45,12.867-214.93,40.676-275.433c81.052-176.335,229.971-182.296,352.063-187.184
					c119.931-4.801,235.705-9.436,320.434,125.821c55.351,88.359,106.249,250.459,72.305,336.796
					c-35.7,90.802-134.829,20.434-370.585,19.19C982.517,3006.788,865.983,3090.668,826.928,2988.966z"/>
				
					<linearGradient id="SVGID_00000066512685315743175110000001929485777536479115_" gradientUnits="userSpaceOnUse" x1="1212.754" y1="2603.3157" x2="1209.6743" y2="2415.4551">
					<stop  offset="0" style="stop-color:#AA80F9"/>
					<stop  offset="0.9964" style="stop-color:#6165D7"/>
				</linearGradient>
				<path style="fill:url(#SVGID_00000066512685315743175110000001929485777536479115_);" d="M1332.874,2544.904
					c0,22.203-54.208,48.848-121.077,48.848s-121.077-26.645-121.077-48.848c0-22.203,54.208-12.278,121.077-12.278
					S1332.874,2522.701,1332.874,2544.904z"/>
				
					<linearGradient id="SVGID_00000132055936644557856880000010233413386843993275_" gradientUnits="userSpaceOnUse" x1="1214.2136" y1="2622.7585" x2="1213.1865" y2="2458.4343">
					<stop  offset="0" style="stop-color:#AB316D"/>
					<stop  offset="1" style="stop-color:#792D3D"/>
				</linearGradient>
				<path style="fill:url(#SVGID_00000132055936644557856880000010233413386843993275_);" d="M1167.274,2390.027
					c-18.41,0,24.087,129.358-42.842,147.119c-6.474,1.718-7.536,10.417-1.648,13.608c17.966,9.735,51.617,22.068,106.809,22.068
					c35.853,0,62.078-13.538,75.7-22.679c4.658-3.126,4.193-10.09-0.793-12.66c-20.634-10.633-49.276-44.454-40.729-144.147
					L1167.274,2390.027z"/>
				
					<linearGradient id="SVGID_00000077292621363944737370000000530056558396982411_" gradientUnits="userSpaceOnUse" x1="1200.5895" y1="2387.6201" x2="1227.2802" y2="2066.3062">
					<stop  offset="0" style="stop-color:#AB316D"/>
					<stop  offset="1" style="stop-color:#792D3D"/>
				</linearGradient>
				<path style="fill:url(#SVGID_00000077292621363944737370000000530056558396982411_);" d="M1111.345,2234.939
					c0.275,1.623,5.842,119.696,32.828,178.664c7.746,16.925,46.17,14.896,71.036,12.858c21.598-1.77,55.457,6.114,64.992-8.798
					c38.336-59.951,31.837-208.441,31.837-208.441s-19.641-49.403-100.182-48.05
					C1131.315,2162.526,1111.345,2234.939,1111.345,2234.939z"/>
				
					<linearGradient id="SVGID_00000177457612673209761280000005453647981491934645_" gradientUnits="userSpaceOnUse" x1="1105.5084" y1="2379.7222" x2="1132.1991" y2="2058.4092">
					<stop  offset="0" style="stop-color:#AB316D"/>
					<stop  offset="1" style="stop-color:#792D3D"/>
				</linearGradient>
				<path style="fill:url(#SVGID_00000177457612673209761280000005453647981491934645_);" d="M1130.191,2298.352
					c0,0-16.849-19.581-32.724-22.191c-15.876-2.611-26.217,38.509-4.56,65.269c21.657,26.76,46.692,4.569,46.692,4.569
					L1130.191,2298.352z"/>
				
					<linearGradient id="SVGID_00000057848452400978657470000005654537209978434221_" gradientUnits="userSpaceOnUse" x1="1308.6953" y1="2396.6001" x2="1335.386" y2="2075.2869">
					<stop  offset="0" style="stop-color:#AB316D"/>
					<stop  offset="1" style="stop-color:#792D3D"/>
				</linearGradient>
				<path style="fill:url(#SVGID_00000057848452400978657470000005654537209978434221_);" d="M1294.375,2298.352
					c0,0,16.849-19.581,32.725-22.191s26.218,38.509,4.56,65.269c-21.657,26.76-46.692,4.569-46.692,4.569L1294.375,2298.352z"/>
				
					<linearGradient id="SVGID_00000142878127370944427200000017465434466297453452_" gradientUnits="userSpaceOnUse" x1="1193.5336" y1="2232.699" x2="1264.3663" y2="2013.0149">
					<stop  offset="0" style="stop-color:#311944"/>
					<stop  offset="1" style="stop-color:#6B3976"/>
				</linearGradient>
				<path style="fill:url(#SVGID_00000142878127370944427200000017465434466297453452_);" d="M1117.001,2296.881
					c2.122,3.892,4.551,7.515,6.193,7.087c6.809-1.774-19.454-68.129,4.737-91.362c12.506-12.011,26.593-1.065,77.827-3.384
					c51.593-2.335,64.792-14.679,80.387-5.223c14.208,8.614,26.924,33.21,16.389,106.06c2.933-0.677,5.865-1.353,8.798-2.03
					c-3.951-23.861,0.361-38.917,5.291-48.406c3.597-6.922,10.104-15.849,9.598-28.744c-0.314-7.992-2.962-8.35-3.398-14.895
					c-1.277-19.187,20.615-24.351,21.67-43.306c0.813-14.592-11.776-17.907-9.475-33.161c1.956-12.971,11.787-15.395,10.231-24.766
					c-1.678-10.114-14.845-17.638-24.089-20.263c-9.427-2.677-12.835,0.294-18.361-3.518c-8.93-6.161-4.639-17.1-11.094-21.159
					c-11.495-7.228-34.346,21.645-49.116,14.455c-8.943-4.353-5.499-17.339-13.415-20.49c-15.296-6.087-42.323,36.763-53.195,31.074
					c-5.206-2.723-0.186-13.161-7.486-20.845c-8.572-9.024-29.152-9.009-38.534,0.543c-8.746,8.904-1.319,19.536-10.578,30.817
					c-8.313,10.129-17.916,5.961-27.299,14.078c-15.94,13.789-10.391,44.993-8.411,56.128c6.816,38.334,28.041,46.088,23.278,72.227
					c-1.219,6.687-4.056,14.123-2.03,25.04C1106.908,2283.548,1112.464,2291.622,1117.001,2296.881z"/>
				<g style="opacity:0.3;">
					
						<linearGradient id="SVGID_00000070079571013581860090000000353551324804533439_" gradientUnits="userSpaceOnUse" x1="1193.5382" y1="2232.7004" x2="1264.3708" y2="2013.0168">
						<stop  offset="0" style="stop-color:#311944"/>
						<stop  offset="1" style="stop-color:#6B3976"/>
					</linearGradient>
					<path style="fill:url(#SVGID_00000070079571013581860090000000353551324804533439_);" d="M1313.045,2214.086
						c-1.884-18.846,12.718-27.617,10.266-41.063c-1.969-10.8-14.187-20.51-25.664-22.584
						c-24.481-4.424-40.329,31.624-64.673,27.717c-18.823-3.021-16.737-25.758-37.983-34.903
						c-33.674-14.494-68.971,29.69-91.364,17.451c-6.73-3.678-13.535-13.131-14.019-38.775c-12.841,14.749-7.802,43.131-5.934,53.64
						c6.816,38.334,28.042,46.089,23.278,72.227c-1.219,6.686-4.056,14.123-2.031,25.04c1.987,10.71,7.543,18.785,12.079,24.044
						c2.121,3.892,4.552,7.515,6.193,7.087c6.809-1.775-19.454-68.129,4.737-91.362c12.506-12.011,26.593-1.065,77.827-3.384
						c51.593-2.335,64.792-14.679,80.387-5.223c14.208,8.615,26.924,33.21,16.39,106.06c2.932-0.677,5.865-1.353,8.797-2.03
						c-3.95-23.861,0.361-38.917,5.291-48.406c1.482-2.852,3.455-6.053,5.231-9.723c-0.375-6.278-1.442-13.171-3.676-20.415
						C1315.558,2220.99,1313.651,2220.15,1313.045,2214.086z"/>
				</g>
			</g>
		</g>
		<g>
			<g>
				<g>
					
						<linearGradient id="SVGID_00000047778570178362225470000009334394559518443928_" gradientUnits="userSpaceOnUse" x1="2769.9563" y1="2001.4156" x2="2572.979" y2="2387.1628">
						<stop  offset="0" style="stop-color:#AB316D"/>
						<stop  offset="1" style="stop-color:#792D3D"/>
					</linearGradient>
					<path style="fill:url(#SVGID_00000047778570178362225470000009334394559518443928_);" d="M2376.292,2724.122
						c-164.449-26.566-200.702-44.973-217.472-78.681c-24.348-48.942-6.643-128.174,35.05-176.981
						c36.583-42.825,82.26-51.254,80.925-80.954c-1.098-24.432-32.406-27.553-55.386-73.464
						c-6.703-13.391-19.712-39.382-14.049-70.7c8.292-45.852,50.613-69.951,54.048-71.839c44.3-24.344,69.58,3.634,102.999-18.197
						c41.852-27.34,22.874-84.724,62.122-101.386c28.583-12.135,65.145,7.051,74.689,12.059c31.848,16.712,28.5,33.678,55.41,44.048
						c31.593,12.175,46.684-7.176,83.431,0.539c30.37,6.376,52.372,27.336,70.33,48.442c40.386,47.465,20.305,75.698,50.142,134.297
						c42.029,82.541,105.556,73.04,116.835,139.295c5.898,34.651-9.246,50.363,2.383,103.449
						c7.855,35.858,17.743,42.288,19.497,63.385c5.043,60.665-67.688,113.744-81.25,123.065
						C2729.804,2779.738,2610.794,2762.005,2376.292,2724.122z"/>
					
						<linearGradient id="SVGID_00000020396473530505218400000016889758765290445464_" gradientUnits="userSpaceOnUse" x1="2769.6301" y1="2004.0797" x2="2573.2263" y2="2388.7034">
						<stop  offset="0" style="stop-color:#AB316D"/>
						<stop  offset="1" style="stop-color:#792D3D"/>
					</linearGradient>
					<path style="opacity:0.7;fill:url(#SVGID_00000020396473530505218400000016889758765290445464_);" d="M2643.455,2565.583
						c-110.817-7.952-185.601,91.86-215.214,67.039c-28.049-23.51,51.211-102.864,24.119-195.682
						c-26.577-91.053-130.664-109.975-122.449-161.257c9.298-58.039,148.928-73.146,145.64-115.959
						c-1.94-25.258-51.353-30.578-61.225-70.663c-2.679-10.879-1.786-21.667,1.012-31.756c-27.147,21.281-14.812,71.098-52.93,96
						c-33.419,21.831-58.699-6.148-102.999,18.197c-3.435,1.888-45.756,25.988-54.049,71.839c-5.664,31.318,7.346,57.31,14.049,70.7
						c22.98,45.911,54.288,49.032,55.386,73.464c1.335,29.7-44.343,38.129-80.926,80.954
						c-41.692,48.807-59.398,128.038-35.049,176.981c16.77,33.708,53.023,52.115,217.472,78.681
						c234.502,37.883,353.512,55.615,439.704-3.624c33.46-22.997,72.946-62.322,81.424-97.402
						c-16.917,14.954-33.499,22.208-48.957,24.927C2776.563,2660.67,2743.388,2572.754,2643.455,2565.583z"/>
				</g>
				
					<linearGradient id="SVGID_00000136374115378070136540000014216181929340994956_" gradientUnits="userSpaceOnUse" x1="2576.0798" y1="3243.9565" x2="2480.7297" y2="2552.6685">
					<stop  offset="0.0036" style="stop-color:#E38DDD"/>
					<stop  offset="1" style="stop-color:#9571F6"/>
				</linearGradient>
				<path style="fill:url(#SVGID_00000136374115378070136540000014216181929340994956_);" d="M2193.046,2935.199
					c-24.651-60.665-9.626-155.301-6.458-175.254c12.363-77.866,41.525-126.038,52.159-143.173
					c73.026-117.665,184.511-116.562,268.958-115.727c41.882,0.414,85.357-0.397,138.623,18.466c0,0,42.235,14.958,78.019,39.858
					c107.309,74.675,192.52,319.176,105.47,410.579c-55.261,58.023-111.76-17.239-354.962,15.901
					c-96.77,13.187-198.169,35.996-258.128-15.967C2206.829,2961.305,2199.053,2949.981,2193.046,2935.199z"/>
				
					<linearGradient id="SVGID_00000099638251170703221040000005541790517197313704_" gradientUnits="userSpaceOnUse" x1="2508.9727" y1="2656.8674" x2="2495.2852" y2="2359.8494">
					<stop  offset="0" style="stop-color:#FFC444"/>
					<stop  offset="0.9964" style="stop-color:#F36F56"/>
				</linearGradient>
				<path style="fill:url(#SVGID_00000099638251170703221040000005541790517197313704_);" d="M2463.352,2358.139
					c0,0,17.813,127.713-72.378,153.02c-10.394,2.917-13.582,16.102-5.715,23.495l111.204,104.522
					c6.739,6.333,17.363,5.904,23.568-0.952l100.925-111.506c6.621-7.315,3.722-18.977-5.536-22.385
					c-32.395-11.927-90.369-46.573-78.211-140.036L2463.352,2358.139z"/>
				
					<linearGradient id="SVGID_00000009569534420892392270000006830451009385667732_" gradientUnits="userSpaceOnUse" x1="2493.7822" y1="2395.646" x2="2499.0308" y2="2194.7036">
					<stop  offset="0" style="stop-color:#FFC444"/>
					<stop  offset="0.9964" style="stop-color:#F36F56"/>
				</linearGradient>
				<path style="fill:url(#SVGID_00000009569534420892392270000006830451009385667732_);" d="M2408.076,2287.258
					c0.029,1.397,24.32,126,86.717,126c59.108,0,81.567-91.76,88.878-134.61c0.777-7.288,1.554-14.577,2.33-21.865
					c-4.025,1.32-14.006,3.99-25.941,0.752c-2.707-0.734-19.865-5.388-26.234-19.53c-7.096-15.756,5.951-28.291-1.483-42.063
					c-4.311-7.986-12.991-11.726-19.617-13.636c4.413,6.465,12.975,20.906,8.134,34.026c-3.252,8.811-12.353,17.258-32.656,22.402
					C2430.151,2253.441,2407.507,2259.03,2408.076,2287.258z"/>
				
					<linearGradient id="SVGID_00000012468104100947254870000013315877649061758337_" gradientUnits="userSpaceOnUse" x1="2407.7319" y1="2374.7434" x2="2412.5227" y2="2191.3315">
					<stop  offset="0" style="stop-color:#FFC444"/>
					<stop  offset="0.9964" style="stop-color:#F36F56"/>
				</linearGradient>
				<path style="fill:url(#SVGID_00000012468104100947254870000013315877649061758337_);" d="M2423.326,2302.156
					c0,0-32.153-27.192-34.957-10.55c-5.845,34.698,21.658,53.852,36.583,43.478
					C2439.878,2324.71,2423.326,2302.156,2423.326,2302.156z"/>
				
					<linearGradient id="SVGID_00000151527218719562051800000009848557589703456160_" gradientUnits="userSpaceOnUse" x1="2577.293" y1="2379.1724" x2="2582.0837" y2="2195.7603">
					<stop  offset="0" style="stop-color:#FFC444"/>
					<stop  offset="0.9964" style="stop-color:#F36F56"/>
				</linearGradient>
				<path style="fill:url(#SVGID_00000151527218719562051800000009848557589703456160_);" d="M2565.096,2302.156
					c0,0,32.153-27.192,34.957-10.55c5.845,34.698-21.657,53.852-36.583,43.478
					C2548.544,2324.71,2565.096,2302.156,2565.096,2302.156z"/>
			</g>
		</g>
		<g>
			<g>
				<g>
					
						<linearGradient id="SVGID_00000093159728936932442070000014285525458291915441_" gradientUnits="userSpaceOnUse" x1="2323.6533" y1="2043.5886" x2="1673.8328" y2="3322.7117">
						<stop  offset="0" style="stop-color:#FF9085"/>
						<stop  offset="1" style="stop-color:#FB6FBB"/>
					</linearGradient>
					<path style="fill:url(#SVGID_00000093159728936932442070000014285525458291915441_);" d="M1881.453,3139.325
						c-385.233,2.969-520.271,53.722-581.455-29.78c-56.306-76.846-9.659-352.721,57.532-430.182
						c106.217-122.453,276.73-128.466,510.009-134.966c219.37-6.114,354.555-9.881,461.298,84.664
						c99.79,88.385,163.522,393.354,101.377,478.271C2372.546,3186.132,2249.257,3136.49,1881.453,3139.325z"/>
					
						<linearGradient id="SVGID_00000080926296027009913050000003281890055455227565_" gradientUnits="userSpaceOnUse" x1="1866.4254" y1="2589.6421" x2="1908.713" y2="2864.5103">
						<stop  offset="0" style="stop-color:#FFC444"/>
						<stop  offset="0.9964" style="stop-color:#F36F56"/>
					</linearGradient>
					<path style="fill:url(#SVGID_00000080926296027009913050000003281890055455227565_);" d="M1772.29,2368.877
						c0,0,24.787,178.323-9.488,195.356l97.572,106.319l98.837-125.945c0,0-37.361-28.138-27.522-175.73H1772.29z"/>
					
						<linearGradient id="SVGID_00000043415249350870548050000014854295383369711803_" gradientUnits="userSpaceOnUse" x1="1846.9304" y1="2169.5327" x2="1836.358" y2="2867.2756">
						<stop  offset="0" style="stop-color:#FFC444"/>
						<stop  offset="0.9964" style="stop-color:#F36F56"/>
					</linearGradient>
					<path style="fill:url(#SVGID_00000043415249350870548050000014854295383369711803_);" d="M1714.73,2113.639
						c-3.525,4.77-49.316,229.466,109.158,252.977c158.474,23.511,165.46-142.564,163.443-213.022
						c-2.017-70.458-74.514-96.041-115.997-100.96C1829.851,2047.715,1727.236,2096.714,1714.73,2113.639z"/>
					
						<linearGradient id="SVGID_00000039843370689355625340000015811670574005687718_" gradientUnits="userSpaceOnUse" x1="1742.5374" y1="2252.7161" x2="1731.9652" y2="2950.4385" gradientTransform="matrix(0.9936 -0.1133 0.1133 0.9936 -309.5573 89.967)">
						<stop  offset="0" style="stop-color:#FFC444"/>
						<stop  offset="0.9964" style="stop-color:#F36F56"/>
					</linearGradient>
					<path style="fill:url(#SVGID_00000039843370689355625340000015811670574005687718_);" d="M1705.534,2244.834
						c0,0-7.932-36.728-35.08-13.827c-27.147,22.901,16.025,83.681,51.635,81.17L1705.534,2244.834z"/>
					
						<linearGradient id="SVGID_00000005233369063285670220000010032336345665800843_" gradientUnits="userSpaceOnUse" x1="1992.517" y1="2171.7385" x2="1981.9446" y2="2869.4802">
						<stop  offset="0" style="stop-color:#FFC444"/>
						<stop  offset="0.9964" style="stop-color:#F36F56"/>
					</linearGradient>
					<path style="fill:url(#SVGID_00000005233369063285670220000010032336345665800843_);" d="M1982.447,2219.247
						c-4.557,3.082-17.633,89.295-17.633,89.295s22.877,2.69,39.438-28.26C2020.814,2249.33,2028.776,2187.913,1982.447,2219.247z"
						/>
					
						<linearGradient id="SVGID_00000113321251222463897690000010233018876205584063_" gradientUnits="userSpaceOnUse" x1="1594.6301" y1="2170.9087" x2="2050.4905" y2="2170.9087">
						<stop  offset="0" style="stop-color:#444B8C"/>
						<stop  offset="0.9964" style="stop-color:#3E4177"/>
					</linearGradient>
					<path style="fill:url(#SVGID_00000113321251222463897690000010233018876205584063_);" d="M2044.74,2054.533
						c-16.695-27.699-58.866-14.58-71.174-41.289c-10.341-22.438,13.965-43.547,0.925-62.939
						c-10.907-16.221-37.569-15.816-42.309-15.744c-36.03,0.548-44.276,29.073-69.963,28.427
						c-31.37-0.789-32.592-43.67-74.07-61.725c-40.249-17.52-99.073-3.249-122.848,29.603
						c-18.481,25.537-2.759,44.305-26.992,77.111c-16.67,22.566-31.405,23.563-39.683,45.642
						c-7.774,20.736-2.513,40.49,1.601,55.164c9.861,35.172,28.246,50.694,56.024,88.122c12.442,16.765,29.503,41.61,47.114,74.333
						c7.377,19.698,17.937,50.184,27.709,88.713c8.889,35.046,8.35,42.144,16.656,53.494c28.632,39.13,93.981,35.344,121.48,33.751
						c31.53-1.826,70.778-4.1,90.523-31.486c10.673-14.804,9.331-28.184,11.807-63.956c1.768-25.533,5.416-61.362,13.706-104.817
						c0.16,0.004,3.689-19.926,12.887-44.458c11.489-30.643,23.418-35.527,36.379-67.193
						C2044.907,2109.889,2058.333,2077.086,2044.74,2054.533z M1913.486,2293.701c-19.483,5.259-32.628,0.536-59.037-0.984
						c-52.819-3.038-69.521,21.693-94.459,10.823c-10.396-4.532-34.438-17.219-39.528-41.531
						c-2.944-15.772-5.014-37.317-1.633-62.252c4.131-30.467,8.899-65.617,33.307-81.161c35.418-22.555,80.652,16.262,113.137-8.892
						c12.419-9.616,17.412-24.273,19.679-35.422c7.215,2.485,64.587,23.344,85.705,84.6c13.02,37.763,5.559,71.436-0.779,89.742
						C1957.985,2266.565,1939.835,2286.59,1913.486,2293.701z"/>
					
						<linearGradient id="SVGID_00000007408996224416194030000014866842347502113685_" gradientUnits="userSpaceOnUse" x1="1880.3679" y1="2042.2546" x2="1850.8499" y2="2297.0957">
						<stop  offset="0" style="stop-color:#FFC444"/>
						<stop  offset="0.9964" style="stop-color:#F36F56"/>
					</linearGradient>
					<path style="fill:url(#SVGID_00000007408996224416194030000014866842347502113685_);" d="M1803.917,2330.832
						c20.38,6.316,51.047,10.598,85.395-2.417c3.567-1.351,6.612,2.545,3.637,4.662c-12.279,8.737-30.213,18.01-49.719,16.563
						c-16.121-1.196-30.927-7.415-42.332-13.888C1797.63,2333.897,1800.213,2329.684,1803.917,2330.832z"/>
				</g>
			</g>
			<g>
				
					<linearGradient id="SVGID_00000008870007911372953290000005359463087282785179_" gradientUnits="userSpaceOnUse" x1="4644.5718" y1="2416.9153" x2="4668.3408" y2="2765.1355" gradientTransform="matrix(1 0 0 1 -2798.4924 0)">
					<stop  offset="0" style="stop-color:#444B8C"/>
					<stop  offset="0.9964" style="stop-color:#26264F"/>
				</linearGradient>
				<path style="fill:url(#SVGID_00000008870007911372953290000005359463087282785179_);" d="M1816.697,2622.959
					c0,0,17.746,62.685,35.573,63.873c17.827,1.188,30.9,3.565,30.9,3.565l19.941-74.458
					C1903.111,2615.939,1870.776,2635.311,1816.697,2622.959z"/>
				
					<linearGradient id="SVGID_00000135664278330413080840000011217977114089281471_" gradientUnits="userSpaceOnUse" x1="1861.6346" y1="2968.1348" x2="1861.6346" y2="2450.7849">
					<stop  offset="0" style="stop-color:#444B8C"/>
					<stop  offset="0.9964" style="stop-color:#26264F"/>
				</linearGradient>
				<polygon style="fill:url(#SVGID_00000135664278330413080840000011217977114089281471_);" points="1846.751,2684.59 
					1790.578,3062.118 1850.555,3112.424 1932.691,3058.345 1883.17,2690.397 				"/>
			</g>
		</g>
	</g>
</g>
</svg>
